HIERARCHY
ROOT Hips
{
    OFFSET   0.000000   0.000000   0.000000
    CHANNELS 6 Xposition Yposition Zposition Zrotation Xrotation Yrotation
    JOINT Chest
    {
        OFFSET   0.000000   8.007230   0.000000
        CHANNELS 3 Zrotation Xrotation Yrotation
        JOINT Chest2
        {
            OFFSET   0.000000  22.077100   0.000000
            CHANNELS 3 Zrotation Xrotation Yrotation
            JOINT Neck
            {
                OFFSET   0.000000  23.255100   0.000000
                CHANNELS 3 Zrotation Xrotation Yrotation
                JOINT Head
                {
                    OFFSET   0.000000  14.370100   1.956600
                    CHANNELS 3 Zrotation Xrotation Yrotation
                    End Site
                    {
                        OFFSET   0.000000  19.566000   0.000000
                    }
                }
            }
            JOINT LeftCollar
            {
                OFFSET   3.911900  19.017000  -0.467063
                CHANNELS 3 Zrotation Xrotation Yrotation
                JOINT LeftShoulder
                {
                    OFFSET  10.383700   0.000000   0.000000
                    CHANNELS 3 Zrotation Xrotation Yrotation
                    JOINT LeftElbow
                    {
                        OFFSET  26.662100   0.001193   0.000980
                        CHANNELS 3 Zrotation Xrotation Yrotation
                        JOINT LeftWrist
                        {
                            OFFSET  28.869000  -0.000059  -0.000082
                            CHANNELS 3 Zrotation Xrotation Yrotation
                            JOINT LeftFinger0
                            {
                                OFFSET   2.044650  -2.323450   3.252850
                                CHANNELS 3 Zrotation Xrotation Yrotation
                                JOINT LeftFinger01
                                {
                                    OFFSET   3.088130   0.000000   0.000000
                                    CHANNELS 3 Zrotation Xrotation Yrotation
                                    JOINT LeftFinger02
                                    {
                                        OFFSET   2.639460   0.000000   0.000000
                                        CHANNELS 3 Zrotation Xrotation Yrotation
                                        End Site
                                        {
                                            OFFSET   2.582190   0.000000   0.000000
                                        }
                                    }
                                }
                            }
                            JOINT LeftFinger1
                            {
                                OFFSET   8.364480   0.000000   3.252850
                                CHANNELS 3 Zrotation Xrotation Yrotation
                                JOINT LeftFinger11
                                {
                                    OFFSET   4.646930   0.000000   0.000000
                                    CHANNELS 3 Zrotation Xrotation Yrotation
                                    JOINT LeftFinger12
                                    {
                                        OFFSET   2.323470   0.000000   0.000000
                                        CHANNELS 3 Zrotation Xrotation Yrotation
                                        End Site
                                        {
                                            OFFSET   2.273050   0.000000   0.000000
                                        }
                                    }
                                }
                            }
                            JOINT LeftFinger2
                            {
                                OFFSET   8.364490   0.000016   1.078090
                                CHANNELS 3 Zrotation Xrotation Yrotation
                                JOINT LeftFinger21
                                {
                                    OFFSET   5.111610   0.000000   0.000000
                                    CHANNELS 3 Zrotation Xrotation Yrotation
                                    JOINT LeftFinger22
                                    {
                                        OFFSET   2.788150   0.000016   0.000000
                                        CHANNELS 3 Zrotation Xrotation Yrotation
                                        End Site
                                        {
                                            OFFSET   2.727660   0.000000   0.000000
                                        }
                                    }
                                }
                            }
                            JOINT LeftFinger3
                            {
                                OFFSET   7.899780   0.000015  -1.078090
                                CHANNELS 3 Zrotation Xrotation Yrotation
                                JOINT LeftFinger31
                                {
                                    OFFSET   4.646930   0.000000   0.000000
                                    CHANNELS 3 Zrotation Xrotation Yrotation
                                    JOINT LeftFinger32
                                    {
                                        OFFSET   2.323470   0.000000   0.000000
                                        CHANNELS 3 Zrotation Xrotation Yrotation
                                        End Site
                                        {
                                            OFFSET   2.273050   0.000000   0.000000
                                        }
                                    }
                                }
                            }
                            JOINT LeftFinger4
                            {
                                OFFSET   7.435090   0.000000  -3.252850
                                CHANNELS 3 Zrotation Xrotation Yrotation
                                JOINT LeftFinger41
                                {
                                    OFFSET   3.717550   0.000000   0.000000
                                    CHANNELS 3 Zrotation Xrotation Yrotation
                                    JOINT LeftFinger42
                                    {
                                        OFFSET   1.858770   0.000000   0.000000
                                        CHANNELS 3 Zrotation Xrotation Yrotation
                                        End Site
                                        {
                                            OFFSET   1.818440   0.000000   0.000000
                                        }
                                    }
                                }
                            }
                        }
                    }
                }
            }
            JOINT RightCollar
            {
                OFFSET  -3.911910  19.017000  -0.467062
                CHANNELS 3 Zrotation Xrotation Yrotation
                JOINT RightShoulder
                {
                    OFFSET -10.383700   0.000014   0.000000
                    CHANNELS 3 Zrotation Xrotation Yrotation
                    JOINT RightElbow
                    {
                        OFFSET -26.662100   0.001225   0.001091
                        CHANNELS 3 Zrotation Xrotation Yrotation
                        JOINT RightWrist
                        {
                            OFFSET -28.869000  -0.000020  -0.000085
                            CHANNELS 3 Zrotation Xrotation Yrotation
                            JOINT RightFinger0
                            {
                                OFFSET  -2.044650  -2.323490   3.252850
                                CHANNELS 3 Zrotation Xrotation Yrotation
                                JOINT RightFinger01
                                {
                                    OFFSET  -3.088130   0.000000   0.000000
                                    CHANNELS 3 Zrotation Xrotation Yrotation
                                    JOINT RightFinger02
                                    {
                                        OFFSET  -2.639460   0.000000   0.000000
                                        CHANNELS 3 Zrotation Xrotation Yrotation
                                        End Site
                                        {
                                            OFFSET  -2.582190   0.000000   0.000000
                                        }
                                    }
                                }
                            }
                            JOINT RightFinger1
                            {
                                OFFSET  -8.364480   0.000000   3.252850
                                CHANNELS 3 Zrotation Xrotation Yrotation
                                JOINT RightFinger11
                                {
                                    OFFSET  -4.646930   0.000000   0.000000
                                    CHANNELS 3 Zrotation Xrotation Yrotation
                                    JOINT RightFinger12
                                    {
                                        OFFSET  -2.323470   0.000000   0.000000
                                        CHANNELS 3 Zrotation Xrotation Yrotation
                                        End Site
                                        {
                                            OFFSET  -2.273050   0.000000   0.000000
                                        }
                                    }
                                }
                            }
                            JOINT RightFinger2
                            {
                                OFFSET  -8.364480   0.000000   1.078090
                                CHANNELS 3 Zrotation Xrotation Yrotation
                                JOINT RightFinger21
                                {
                                    OFFSET  -5.111620   0.000000   0.000000
                                    CHANNELS 3 Zrotation Xrotation Yrotation
                                    JOINT RightFinger22
                                    {
                                        OFFSET  -2.788160   0.000000   0.000000
                                        CHANNELS 3 Zrotation Xrotation Yrotation
                                        End Site
                                        {
                                            OFFSET  -2.727660   0.000000   0.000000
                                        }
                                    }
                                }
                            }
                            JOINT RightFinger3
                            {
                                OFFSET  -7.899780   0.000000  -1.078090
                                CHANNELS 3 Zrotation Xrotation Yrotation
                                JOINT RightFinger31
                                {
                                    OFFSET  -4.646930   0.000000   0.000000
                                    CHANNELS 3 Zrotation Xrotation Yrotation
                                    JOINT RightFinger32
                                    {
                                        OFFSET  -2.323470   0.000000   0.000000
                                        CHANNELS 3 Zrotation Xrotation Yrotation
                                        End Site
                                        {
                                            OFFSET  -2.273050   0.000000   0.000000
                                        }
                                    }
                                }
                            }
                            JOINT RightFinger4
                            {
                                OFFSET  -7.435090   0.000000  -3.252850
                                CHANNELS 3 Zrotation Xrotation Yrotation
                                JOINT RightFinger41
                                {
                                    OFFSET  -3.717550   0.000000   0.000000
                                    CHANNELS 3 Zrotation Xrotation Yrotation
                                    JOINT RightFinger42
                                    {
                                        OFFSET  -1.858760   0.000000   0.000000
                                        CHANNELS 3 Zrotation Xrotation Yrotation
                                        End Site
                                        {
                                            OFFSET  -1.818440   0.000000   0.000000
                                        }
                                    }
                                }
                            }
                        }
                    }
                }
            }
        }
    }
    JOINT LeftHip
    {
        OFFSET   9.783030   0.000000   0.000000
        CHANNELS 3 Zrotation Xrotation Yrotation
        JOINT LeftKnee
        {
            OFFSET   0.000063 -41.789100   0.000608
            CHANNELS 3 Zrotation Xrotation Yrotation
            JOINT LeftAnkle
            {
                OFFSET   0.000048 -41.133200  -0.000184
                CHANNELS 3 Zrotation Xrotation Yrotation
                JOINT LeftToe
                {
                    OFFSET   0.000000  -6.358960  14.674500
                    CHANNELS 3 Zrotation Xrotation Yrotation
                    End Site
                    {
                        OFFSET   0.000000   0.000000   3.913200
                    }
                }
            }
        }
    }
    JOINT RightHip
    {
        OFFSET  -9.783030   0.000000   0.000000
        CHANNELS 3 Zrotation Xrotation Yrotation
        JOINT RightKnee
        {
            OFFSET   0.000071 -41.789100   0.001239
            CHANNELS 3 Zrotation Xrotation Yrotation
            JOINT RightAnkle
            {
                OFFSET   0.000037 -41.133200  -0.000166
                CHANNELS 3 Zrotation Xrotation Yrotation
                JOINT RightToe
                {
                    OFFSET   0.000000  -6.358960  14.674500
                    CHANNELS 3 Zrotation Xrotation Yrotation
                    End Site
                    {
                        OFFSET   0.000000   0.000000   3.913200
                    }
                }
            }
        }
    }
}
MOTION
Frames: 5
Frame Time:   0.016667
 -0.703827  89.806800  -0.665409   0.278815  -4.645810   0.651977  -0.768987   3.976750  -0.285358  -1.523590   7.956980  -0.518921   1.677100   0.684975  -0.029983   2.756240   1.385340  10.306600  -3.191890  -0.372804   7.512540 -70.803400  15.577600  -0.186302  -4.247610  -9.729100 -13.034400  16.171200  -2.798860   7.543600  37.626700  32.702700 -67.374300 -32.001400  -0.002385  -0.000442 -11.000700   0.001923  -0.000217 -38.086300   7.665470  -9.658710 -31.690900   0.002985  -0.002707 -22.183600   0.006040  -0.005626 -31.482200  -1.672670   2.729920 -47.281500  -0.000244  -0.003909 -31.489500   0.011122  -0.001288 -28.733700  -1.539230   2.806780 -40.516100   0.010788  -0.005431 -26.983700  -0.000095  -0.004147 -38.056600  -1.974300   2.520560 -57.148400   0.003105  -0.007419 -38.060800   0.004703   0.008144   8.880700   2.564980   8.402540  66.288300  10.911600  -2.170730   3.551850  -6.287600   7.533200  -5.472450 -16.033400  -3.440300 -33.308400  20.178300  55.112000  32.870500   0.002542  -0.010836  11.435300   0.006114   0.001739  30.272500   1.363210   2.333040  24.791100  -0.000706   0.000529  17.353800  -0.000268   0.000490  28.407100  -3.192100  -5.877390  37.004900  -0.010905   0.005296  24.645200   0.007582   0.001138  28.151800  -5.061340  -9.362140  36.954000  -0.001009   0.000000  24.611400  -0.000113   0.000245  39.493000  -9.578350 -11.418200  60.680200   0.002188   0.001805  40.413000   0.007081   0.006538  -0.348589   2.453720   0.745080   1.325090   3.676070   8.736080  -6.064520  -2.526150   1.850850   0.000000   0.000000  -0.000000   3.145730   2.795850  -5.021100  -0.915942   4.332260  -6.841010 -10.537200  -0.721848  -0.664834   0.000000   0.000000   0.000000
 -0.703983  89.806800  -0.669358   0.280726  -4.670270   0.671222  -0.767238   3.978240  -0.272327  -1.520990   7.959760  -0.492869   1.689150   0.717256  -0.029906   2.776120   1.450770  10.371900  -3.215970  -0.291840   7.557850 -70.910700  15.534600  -0.320317  -4.140230  -9.975450 -13.063100  16.191900  -3.288910   7.739360  37.800700  32.971800 -67.769600 -31.889900  -0.002390  -0.000444 -10.944900   0.001923  -0.000213 -38.134500   7.802260  -9.802640 -31.750000   0.002978  -0.002695 -22.225000   0.006031  -0.005638 -31.529600  -1.588420   2.586530 -47.347200  -0.000244  -0.003904 -31.533200   0.011115  -0.001292 -28.741300  -1.459780   2.660890 -40.611900   0.010781  -0.005422 -27.047500  -0.000109  -0.004152 -38.106000  -1.874390   2.387630 -57.216400   0.003096  -0.007412 -38.106100   0.004695   0.008140   8.882220   2.549240   8.386800  66.157700  10.874800  -2.066980   3.490400  -6.398810   7.439060  -5.061180 -15.953700  -3.651590 -33.261100  20.141700  55.292000  32.861200   0.002548  -0.010848  11.430600   0.006118   0.001736  30.356200   1.390590   2.372090  24.861200  -0.000698   0.000519  17.402900  -0.000273   0.000482  28.419300  -3.240640  -5.962930  37.234400  -0.010909   0.005272  24.798000   0.007578   0.001097  28.174000  -5.055340  -9.342600  37.233100  -0.000968  -0.000036  24.797300  -0.000126   0.000208  39.762400  -9.718940 -11.470300  61.111200   0.002171   0.001771  40.700000   0.007074   0.006528  -0.349560   2.523130   0.756541   1.323310   3.634640   8.716010  -6.064760  -2.532730   1.840810  -0.000000   0.000000   0.000000   3.149520   2.813010  -5.035410  -0.917422   4.342750  -6.847660 -10.531200  -0.724375  -0.660379  -0.000000   0.000000   0.000000
 -0.704161  89.806700  -0.677024   0.283931  -4.719290   0.701505  -0.762498   3.987720  -0.251512  -1.512920   7.978400  -0.451302   1.709340   0.776952  -0.029807   2.809420   1.571560  10.482800  -3.260710  -0.175359   7.603150 -71.080200  15.491300  -0.543537  -3.987940 -10.419200 -13.155700  16.189100  -3.986590   8.028540  37.966400  33.236600 -68.170400 -31.736300  -0.002397  -0.000452 -10.868100   0.001925  -0.000208 -38.223900   7.938880  -9.946710 -31.840400   0.002956  -0.002668 -22.288300   0.006008  -0.005669 -31.593500  -1.504150   2.443150 -47.439100  -0.000243  -0.003894 -31.594400   0.011100  -0.001302 -28.748600  -1.380300   2.515010 -40.750900   0.010762  -0.005401 -27.140100  -0.000122  -0.004164 -38.177600  -1.774460   2.254730 -57.319500   0.003074  -0.007395 -38.174800   0.004675   0.008129   8.878890   2.509060   8.357080  65.899700  10.780300  -1.860160   3.386010  -6.511050   7.275550  -4.290560 -15.730000  -3.996280 -33.192100  20.082400  55.576300  32.831900   0.002559  -0.010874  11.416000   0.006130   0.001725  30.456300   1.436200   2.439720  24.944100  -0.000680   0.000494  17.460900  -0.000285   0.000461  28.435700  -3.316680  -6.097680  37.567400  -0.010918   0.005217  25.019800   0.007568   0.001004  28.196300  -5.049330  -9.323070  37.512100  -0.000878  -0.000117  24.983100  -0.000155   0.000129  40.176000  -9.935410 -11.550100  61.774100   0.002124   0.001697  41.141500   0.007057   0.006505  -0.351187   2.617820   0.774354   1.322200   3.593310   8.684760  -6.065270  -2.539320   1.824840  -0.000000   0.000000   0.000000   3.158310   2.852090  -5.065920  -0.924421   4.358450  -6.858600 -10.519600  -0.730728  -0.644465   0.000000   0.000000   0.000000
 -0.704186  89.806600  -0.685203   0.286870  -4.774510   0.726389  -0.754388   4.008190  -0.235616  -1.497720   8.019110  -0.419705   1.725100   0.838865  -0.029783   2.835690   1.696410  10.573200  -3.307970  -0.114143   7.602580 -71.193600  15.544300  -0.721556  -3.926800 -10.871500 -13.323000  16.100700  -4.249670   8.149900  37.946600  33.192500 -68.190000 -31.696000  -0.002398  -0.000471 -10.847900   0.001927  -0.000219 -38.307800   7.922530  -9.907230 -31.900200   0.002918  -0.002627 -22.330100   0.005975  -0.005718 -31.618500  -1.542610   2.503640 -47.478600   0.000055  -0.003883 -31.620800   0.011075  -0.001316 -28.745600  -1.414970   2.577850 -40.828000   0.010729  -0.005369 -27.191400  -0.000092  -0.004185 -38.218200  -1.820190   2.309960 -57.383700   0.003041  -0.007366 -38.217600   0.004645   0.008113   8.863920   2.448950   8.324620  65.616800  10.618600  -1.635260   3.309990  -6.510110   7.131780  -3.483740 -15.354200  -4.244570 -33.153100  20.034400  55.777000  32.782500   0.002570  -0.010908  11.391300   0.006152   0.001701  30.474300   1.471380   2.496840  24.959100  -0.000651   0.000456  17.471400  -0.000304   0.000429  28.441500  -3.378230  -6.208930  37.752200  -0.010932   0.005134  25.142900   0.007552   0.000872  28.196200  -5.049400  -9.323240  37.509800  -0.000748  -0.000233  24.981500  -0.000194   0.000022  40.443600 -10.098600 -11.608300  62.210500   0.002045   0.001599  41.432200   0.007033   0.006470  -0.352344   2.637410   0.785627   1.320560   3.630200   8.663190  -6.063590  -2.539050   1.811880  -0.000000   0.000000  -0.000000   3.172320   2.903950  -5.106650  -0.940768   4.368840  -6.869090 -10.508500  -0.740533  -0.610447  -0.000000   0.000000   0.000000
 -0.704190  89.806500  -0.695149   0.289092  -4.842320   0.740278  -0.745072   4.040680  -0.223081  -1.479870   8.083910  -0.394792   1.742190   0.904296  -0.029780   2.864200   1.828370  10.671400  -3.355670  -0.088460   7.602010 -71.296700  15.597200  -0.900784  -3.893400 -11.307000 -13.547000  15.950300  -4.464630   8.283570  37.899300  33.111600 -68.200000 -31.664600  -0.002401  -0.000493 -10.832300   0.001931  -0.000234 -38.359000   7.885980  -9.835540 -31.941200   0.002869  -0.002581 -22.358800   0.005932  -0.005781 -31.623800  -1.611090   2.613170 -47.491900   0.000611  -0.003869 -31.629600   0.011043  -0.001333 -28.739900  -1.477250   2.691170 -40.861800   0.010688  -0.005330 -27.213900   0.000119  -0.004211 -38.245700  -1.901910   2.410030 -57.429600   0.003001  -0.007331 -38.248200   0.004609   0.008092   8.840890   2.369540   8.290670  65.270100  10.450900  -1.346520   3.237590  -6.491270   6.981280  -2.594860 -14.883000  -4.507370 -33.135600  20.000000  55.948000  32.711000   0.002581  -0.010949  11.355500   0.006181   0.001669  30.473900   1.509010   2.561610  24.961300  -0.000617   0.000410  17.472900  -0.000328   0.000391  28.442800  -3.412260  -6.270980  37.833500  -0.010949   0.005038  25.197100   0.007531   0.000726  28.195200  -5.049890  -9.324390  37.493200  -0.000610  -0.000357  24.970500  -0.000241  -0.000091  40.648800 -10.185900 -11.639000  62.534900   0.001947   0.001489  41.648200   0.007002   0.006430  -0.353579   2.655900   0.795872   1.318630   3.667050   8.646470  -6.060340  -2.537050   1.803400  -0.000000   0.000000   0.000000   3.185720   2.971150  -5.150760  -0.960115   4.374010  -6.875300 -10.492500  -0.752458  -0.573155   0.000000   0.000000   0.000000
